<svg className="App-logo" width="84px" height="75px" viewBox="0 0 84 75">
  <g stroke="none" strokeWidth="1" fill="none" fillRule="evenodd">
      <g fillRule="nonzero" fill="#FFF" stroke="#9012FE">
          <path class="path" d="M70.2844864,45.810662 L69.9945088,46.2171964 C64.6019856,53.8552128 48.5035008,69.1196908 41.9953556,69.1196908 C35.4851018,69.1196908 19.3855622,53.8552128 13.9940934,46.2171964 L13.7062251,45.810662 C11.619443,42.8871848 5.27263084,33.9885962 5.27263084,23.344115 C5.27263084,13.3666866 13.4173022,5.25280404 23.4304819,5.25280404 C28.6068403,5.25280404 33.6334649,8.50613064 37.2228566,14.1839576 L41.9953556,21.7295322 L46.7646912,14.1839576 C50.3551376,8.50613064 55.381762,5.25280404 60.557066,5.25280404 C70.5702456,5.25280404 78.7180804,13.3666866 78.7180804,23.344115 C78.7180804,33.9885962 72.3691596,42.8871848 70.2844864,45.810662 M60.557066,0.000420190708 C53.1800436,0.000420190708 46.274366,4.6141142 41.9953556,11.3854875 C37.7131818,4.6141142 30.8075043,0.000420190708 23.4304819,0.000420190708 C10.4890588,0.000420190708 0.000316338868,10.4516136 0.000316338868,23.344115 C0.000316338868,36.237667 7.88980772,46.6993652 9.6813402,49.2373172 C13.9244989,55.2481452 31.7965905,74.3741756 41.9953556,74.3741756 C52.192012,74.3741756 70.0662124,55.2481452 74.3062076,49.2373172 C76.0987948,46.6993652 83.9903952,36.237667 83.9903952,23.344115 C83.9903952,10.4516136 73.4995436,0.000420190708 60.557066,0.000420190708"></path>
      </g>
  </g>
</svg>
